<?xml version="1.0" encoding="UTF-8" standalone="no"?>
<!DOCTYPE svg PUBLIC "-//W3C//DTD SVG 1.1//EN" "http://www.w3.org/Graphics/SVG/1.1/DTD/svg11.dtd">
<!-- Generated by graphviz version 2.26.3 (20100126.1600)
 -->
<!-- Title: inheritance Pages: 1 -->
<svg xmlns="http://www.w3.org/2000/svg" xmlns:xlink="http://www.w3.org/1999/xlink" width="386px" height="40px" viewBox="0.00 0.00 428.00 44.00">
<g id="graph1" class="graph" transform="rotate(0) translate(4 40)">
<title>inheritance</title>
<!-- e1 -->
<g id="node1" class="node"><title>e1</title>
<a>
<polygon fill="white" stroke="black" points="115,-36 1,-36 1,-1.77636e-14 115,-3.55271e-15 115,-36"/>
<text text-anchor="middle" x="58" y="-14.4" font-family="DejaVu Sans, verdana, sans-serif" font-size="14.00">exception</text>
</a>
</g>
<!-- e2 -->
<g id="node2" class="node"><title>e2</title>
<a>
<polygon fill="white" stroke="black" points="267,-36 153,-36 153,-1.77636e-14 267,-3.55271e-15 267,-36"/>
<text text-anchor="middle" x="210" y="-14.4" font-family="DejaVu Sans, verdana, sans-serif" font-size="14.00">logic_error</text>
</a>
</g>
<!-- e1&#45;&gt;e2 -->
<g id="edge2" class="edge"><title>e1-&gt;e2</title>
<path fill="none" stroke="black" d="M115.898,-18C124.461,-18 133.349,-18 142.093,-18"/>
<polygon fill="black" stroke="black" points="142.263,-21.5001 152.263,-18 142.263,-14.5001 142.263,-21.5001"/>
</g>
<!-- e3 -->
<g id="node3" class="node"><title>e3</title>
<a>
<polygon fill="lightgrey" stroke="black" points="419,-36 305,-36 305,-1.77636e-14 419,-3.55271e-15 419,-36"/>
<text text-anchor="middle" x="362" y="-14.4" font-family="DejaVu Sans, verdana, sans-serif" font-size="14.00">out_of_range</text>
</a>
</g>
<!-- e2&#45;&gt;e3 -->
<g id="edge4" class="edge"><title>e2-&gt;e3</title>
<path fill="none" stroke="black" d="M267.898,-18C276.461,-18 285.349,-18 294.093,-18"/>
<polygon fill="black" stroke="black" points="294.263,-21.5001 304.263,-18 294.263,-14.5001 294.263,-21.5001"/>
</g>
</g>
</svg>
