<?xml version="1.0" encoding="UTF-8" standalone="no"?>
<!DOCTYPE svg PUBLIC "-//W3C//DTD SVG 1.1//EN" "http://www.w3.org/Graphics/SVG/1.1/DTD/svg11.dtd">
<!-- Generated by graphviz version 2.26.3 (20100126.1600)
 -->
<!-- Title: inheritance Pages: 1 -->
<svg xmlns="http://www.w3.org/2000/svg" xmlns:xlink="http://www.w3.org/1999/xlink" width="515px" height="392px" viewBox="0.00 0.00 570.00 434.00">
<g id="graph1" class="graph" transform="rotate(0) translate(4 430)">
<title>inheritance</title>
<!-- base -->
<g id="node1" class="node"><title>base</title>
<a>
<polygon fill="white" stroke="black" points="339,-426 225,-426 225,-390 339,-390 339,-426"/>
<text text-anchor="middle" x="282" y="-404.4" font-family="DejaVu Sans, verdana, sans-serif" font-size="14.00">ios_base</text>
</a>
</g>
<!-- ios -->
<g id="node2" class="node"><title>ios</title>
<a>
<polygon fill="white" stroke="black" points="347,-354 217,-354 217,-312 347,-312 347,-354"/>
<text text-anchor="start" x="251.5" y="-339.733" font-family="DejaVu Sans, verdana, sans-serif" font-size="14.00">basic_ios</text>
<text text-anchor="start" x="225.5" y="-322.933" font-family="DejaVu Sans, verdana, sans-serif" font-size="14.00" fill="#808080">&lt;CharT, Traits&gt;</text>
</a>
</g>
<!-- base&#45;&gt;ios -->
<g id="edge2" class="edge"><title>base-&gt;ios</title>
<path fill="none" stroke="black" d="M282,-389.845C282,-382.201 282,-373.081 282,-364.407"/>
<polygon fill="black" stroke="black" points="285.5,-364.179 282,-354.179 278.5,-364.179 285.5,-364.179"/>
</g>
<!-- ist -->
<g id="node3" class="node"><title>ist</title>
<a>
<polygon fill="white" stroke="black" points="440,-276 310,-276 310,-234 440,-234 440,-276"/>
<text text-anchor="start" x="328" y="-261.733" font-family="DejaVu Sans, verdana, sans-serif" font-size="14.00">basic_istream</text>
<text text-anchor="start" x="318.5" y="-244.933" font-family="DejaVu Sans, verdana, sans-serif" font-size="14.00" fill="#808080">&lt;CharT, Traits&gt;</text>
</a>
</g>
<!-- ios&#45;&gt;ist -->
<g id="edge4" class="edge"><title>ios-&gt;ist</title>
<path fill="none" stroke="black" d="M307.413,-311.686C318.162,-302.671 330.819,-292.055 342.256,-282.463"/>
<polygon fill="black" stroke="black" points="344.527,-285.126 349.94,-276.018 340.029,-279.762 344.527,-285.126"/>
</g>
<!-- ost -->
<g id="node6" class="node"><title>ost</title>
<a>
<polygon fill="white" stroke="black" points="254,-276 124,-276 124,-234 254,-234 254,-276"/>
<text text-anchor="start" x="140" y="-261.733" font-family="DejaVu Sans, verdana, sans-serif" font-size="14.00">basic_ostream</text>
<text text-anchor="start" x="132.5" y="-244.933" font-family="DejaVu Sans, verdana, sans-serif" font-size="14.00" fill="#808080">&lt;CharT, Traits&gt;</text>
</a>
</g>
<!-- ios&#45;&gt;ost -->
<g id="edge6" class="edge"><title>ios-&gt;ost</title>
<path fill="none" stroke="black" d="M256.587,-311.686C245.838,-302.671 233.181,-292.055 221.744,-282.463"/>
<polygon fill="black" stroke="black" points="223.971,-279.762 214.06,-276.018 219.473,-285.126 223.971,-279.762"/>
</g>
<!-- ifst -->
<g id="node4" class="node"><title>ifst</title>
<a>
<polygon fill="white" stroke="black" points="552,-120 422,-120 422,-78 552,-78 552,-120"/>
<text text-anchor="start" x="438" y="-105.733" font-family="DejaVu Sans, verdana, sans-serif" font-size="14.00">basic_ifstream</text>
<text text-anchor="start" x="430.5" y="-88.9333" font-family="DejaVu Sans, verdana, sans-serif" font-size="14.00" fill="#808080">&lt;CharT, Traits&gt;</text>
</a>
</g>
<!-- ist&#45;&gt;ifst -->
<g id="edge10" class="edge"><title>ist-&gt;ifst</title>
<path fill="none" stroke="black" d="M390.105,-233.961C409.644,-206.746 443.787,-159.189 465.886,-128.409"/>
<polygon fill="black" stroke="black" points="468.788,-130.368 471.777,-120.204 463.102,-126.286 468.788,-130.368"/>
</g>
<!-- isst -->
<g id="node5" class="node"><title>isst</title>
<a>
<polygon fill="white" stroke="black" points="562,-42 412,-42 412,-2.13163e-14 562,-7.10543e-15 562,-42"/>
<text text-anchor="start" x="420.5" y="-27.7333" font-family="DejaVu Sans, verdana, sans-serif" font-size="14.00">basic_istringstream</text>
<text text-anchor="start" x="430.5" y="-10.9333" font-family="DejaVu Sans, verdana, sans-serif" font-size="14.00" fill="#808080">&lt;CharT, Traits&gt;</text>
</a>
</g>
<!-- ist&#45;&gt;isst -->
<g id="edge12" class="edge"><title>ist-&gt;isst</title>
<path fill="none" stroke="black" d="M374.965,-233.907C375.846,-198.855 381.717,-127.57 413,-78 420.242,-66.5252 430.655,-56.4622 441.392,-48.114"/>
<polygon fill="black" stroke="black" points="443.633,-50.8107 449.62,-42.0693 439.489,-45.1696 443.633,-50.8107"/>
</g>
<!-- iost -->
<g id="node9" class="node"><title>iost</title>
<a>
<polygon fill="white" stroke="black" points="347,-198 217,-198 217,-156 347,-156 347,-198"/>
<text text-anchor="start" x="231" y="-183.733" font-family="DejaVu Sans, verdana, sans-serif" font-size="14.00">basic_iostream</text>
<text text-anchor="start" x="225.5" y="-166.933" font-family="DejaVu Sans, verdana, sans-serif" font-size="14.00" fill="#808080">&lt;CharT, Traits&gt;</text>
</a>
</g>
<!-- ist&#45;&gt;iost -->
<g id="edge8" class="edge"><title>ist-&gt;iost</title>
<path fill="none" stroke="black" d="M349.587,-233.686C338.838,-224.671 326.181,-214.055 314.744,-204.463"/>
<polygon fill="black" stroke="black" points="316.971,-201.762 307.06,-198.018 312.473,-207.126 316.971,-201.762"/>
</g>
<!-- ifst&#45;&gt;isst -->
<!-- ofst -->
<g id="node7" class="node"><title>ofst</title>
<a>
<polygon fill="white" stroke="black" points="142,-120 12,-120 12,-78 142,-78 142,-120"/>
<text text-anchor="start" x="25.5" y="-105.733" font-family="DejaVu Sans, verdana, sans-serif" font-size="14.00">basic_ofstream</text>
<text text-anchor="start" x="20.5" y="-88.9333" font-family="DejaVu Sans, verdana, sans-serif" font-size="14.00" fill="#808080">&lt;CharT, Traits&gt;</text>
</a>
</g>
<!-- ost&#45;&gt;ofst -->
<g id="edge16" class="edge"><title>ost-&gt;ofst</title>
<path fill="none" stroke="black" d="M173.895,-233.961C154.356,-206.746 120.213,-159.189 98.1145,-128.409"/>
<polygon fill="black" stroke="black" points="100.898,-126.286 92.2232,-120.204 95.2122,-130.368 100.898,-126.286"/>
</g>
<!-- osst -->
<g id="node8" class="node"><title>osst</title>
<a>
<polygon fill="white" stroke="black" points="154,-42 7.10543e-14,-42 0,-2.13163e-14 154,-7.10543e-15 154,-42"/>
<text text-anchor="start" x="8" y="-27.7333" font-family="DejaVu Sans, verdana, sans-serif" font-size="14.00">basic_ostringstream</text>
<text text-anchor="start" x="20.5" y="-10.9333" font-family="DejaVu Sans, verdana, sans-serif" font-size="14.00" fill="#808080">&lt;CharT, Traits&gt;</text>
</a>
</g>
<!-- ost&#45;&gt;osst -->
<g id="edge18" class="edge"><title>ost-&gt;osst</title>
<path fill="none" stroke="black" d="M189.035,-233.907C188.154,-198.855 182.283,-127.57 151,-78 143.758,-66.5252 133.345,-56.4622 122.608,-48.114"/>
<polygon fill="black" stroke="black" points="124.511,-45.1696 114.38,-42.0693 120.367,-50.8107 124.511,-45.1696"/>
</g>
<!-- ost&#45;&gt;iost -->
<g id="edge14" class="edge"><title>ost-&gt;iost</title>
<path fill="none" stroke="black" d="M214.413,-233.686C225.162,-224.671 237.819,-214.055 249.256,-204.463"/>
<polygon fill="black" stroke="black" points="251.527,-207.126 256.94,-198.018 247.029,-201.762 251.527,-207.126"/>
</g>
<!-- ofst&#45;&gt;ifst -->
<!-- ofst&#45;&gt;osst -->
<!-- fst -->
<g id="node10" class="node"><title>fst</title>
<a>
<polygon fill="white" stroke="black" points="328,-120 198,-120 198,-78 328,-78 328,-120"/>
<text text-anchor="start" x="216" y="-105.733" font-family="DejaVu Sans, verdana, sans-serif" font-size="14.00">basic_fstream</text>
<text text-anchor="start" x="206.5" y="-88.9333" font-family="DejaVu Sans, verdana, sans-serif" font-size="14.00" fill="#808080">&lt;CharT, Traits&gt;</text>
</a>
</g>
<!-- ofst&#45;&gt;fst -->
<!-- osst&#45;&gt;isst -->
<!-- sst -->
<g id="node11" class="node"><title>sst</title>
<a>
<polygon fill="white" stroke="black" points="336,-42 190,-42 190,-2.13163e-14 336,-7.10543e-15 336,-42"/>
<text text-anchor="start" x="198" y="-27.7333" font-family="DejaVu Sans, verdana, sans-serif" font-size="14.00">basic_stringstream</text>
<text text-anchor="start" x="206.5" y="-10.9333" font-family="DejaVu Sans, verdana, sans-serif" font-size="14.00" fill="#808080">&lt;CharT, Traits&gt;</text>
</a>
</g>
<!-- osst&#45;&gt;sst -->
<!-- iost&#45;&gt;fst -->
<g id="edge20" class="edge"><title>iost-&gt;fst</title>
<path fill="none" stroke="black" d="M276.808,-155.686C274.865,-147.711 272.618,-138.484 270.507,-129.82"/>
<polygon fill="black" stroke="black" points="273.887,-128.906 268.12,-120.018 267.086,-130.562 273.887,-128.906"/>
</g>
<!-- iost&#45;&gt;sst -->
<g id="edge22" class="edge"><title>iost-&gt;sst</title>
<path fill="none" stroke="black" d="M310.027,-155.949C320.584,-146.295 331.388,-133.899 337,-120 343.989,-102.691 345.241,-94.7493 337,-78 331.295,-66.4036 321.97,-56.5033 311.832,-48.3669"/>
<polygon fill="black" stroke="black" points="313.692,-45.3878 303.581,-42.2211 309.51,-51.0017 313.692,-45.3878"/>
</g>
<!-- fst&#45;&gt;ifst -->
<!-- fst&#45;&gt;sst -->
<!-- sst&#45;&gt;isst -->
</g>
</svg>
