<?xml version="1.0" encoding="UTF-8" standalone="no"?>
<!DOCTYPE svg PUBLIC "-//W3C//DTD SVG 1.1//EN" "http://www.w3.org/Graphics/SVG/1.1/DTD/svg11.dtd">
<!-- Generated by graphviz version 2.26.3 (20100126.1600)
 -->
<!-- Title: inheritance Pages: 1 -->
<svg xmlns="http://www.w3.org/2000/svg" xmlns:xlink="http://www.w3.org/1999/xlink" width="562px" height="99px" viewBox="0.00 0.00 622.00 110.00">
<g id="graph1" class="graph" transform="rotate(0) translate(4 106)">
<title>inheritance</title>
<!-- base -->
<g id="node1" class="node"><title>base</title>
<a>
<polygon fill="white" stroke="black" points="115,-69 1,-69 1,-33 115,-33 115,-69"/>
<text text-anchor="middle" x="58" y="-47.4" font-family="DejaVu Sans, verdana, sans-serif" font-size="14.00">ios_base</text>
</a>
</g>
<!-- ios -->
<g id="node2" class="node"><title>ios</title>
<a>
<polygon fill="white" stroke="black" points="282,-72 152,-72 152,-30 282,-30 282,-72"/>
<text text-anchor="start" x="186.5" y="-57.7333" font-family="DejaVu Sans, verdana, sans-serif" font-size="14.00">basic_ios</text>
<text text-anchor="start" x="160.5" y="-40.9333" font-family="DejaVu Sans, verdana, sans-serif" font-size="14.00" fill="#808080">&lt;CharT, Traits&gt;</text>
</a>
</g>
<!-- base&#45;&gt;ios -->
<g id="edge2" class="edge"><title>base-&gt;ios</title>
<path fill="none" stroke="black" d="M115.852,-51C124.277,-51 133.052,-51 141.759,-51"/>
<polygon fill="black" stroke="black" points="141.924,-54.5001 151.924,-51 141.924,-47.5001 141.924,-54.5001"/>
</g>
<!-- ist -->
<g id="node3" class="node"><title>ist</title>
<a>
<polygon fill="white" stroke="black" points="448,-102 318,-102 318,-60 448,-60 448,-102"/>
<text text-anchor="start" x="336" y="-87.7333" font-family="DejaVu Sans, verdana, sans-serif" font-size="14.00">basic_istream</text>
<text text-anchor="start" x="326.5" y="-70.9333" font-family="DejaVu Sans, verdana, sans-serif" font-size="14.00" fill="#808080">&lt;CharT, Traits&gt;</text>
</a>
</g>
<!-- ios&#45;&gt;ist -->
<g id="edge4" class="edge"><title>ios-&gt;ist</title>
<path fill="none" stroke="black" d="M282.131,-62.7707C290.553,-64.2927 299.232,-65.8613 307.8,-67.4097"/>
<polygon fill="black" stroke="black" points="307.321,-70.8797 317.784,-69.214 308.566,-63.9913 307.321,-70.8797"/>
</g>
<!-- ost -->
<g id="node4" class="node"><title>ost</title>
<a>
<polygon fill="white" stroke="black" points="448,-42 318,-42 318,-2.13163e-14 448,-7.10543e-15 448,-42"/>
<text text-anchor="start" x="334" y="-27.7333" font-family="DejaVu Sans, verdana, sans-serif" font-size="14.00">basic_ostream</text>
<text text-anchor="start" x="326.5" y="-10.9333" font-family="DejaVu Sans, verdana, sans-serif" font-size="14.00" fill="#808080">&lt;CharT, Traits&gt;</text>
</a>
</g>
<!-- ios&#45;&gt;ost -->
<g id="edge6" class="edge"><title>ios-&gt;ost</title>
<path fill="none" stroke="black" d="M282.131,-39.2293C290.553,-37.7073 299.232,-36.1387 307.8,-34.5903"/>
<polygon fill="black" stroke="black" points="308.566,-38.0087 317.784,-32.786 307.321,-31.1203 308.566,-38.0087"/>
</g>
<!-- iost -->
<g id="node5" class="node"><title>iost</title>
<a>
<polygon fill="lightgrey" stroke="black" points="614,-72 484,-72 484,-30 614,-30 614,-72"/>
<text text-anchor="start" x="498" y="-57.7333" font-family="DejaVu Sans, verdana, sans-serif" font-size="14.00">basic_iostream</text>
<text text-anchor="start" x="492.5" y="-40.9333" font-family="DejaVu Sans, verdana, sans-serif" font-size="14.00" fill="#808080">&lt;CharT, Traits&gt;</text>
</a>
</g>
<!-- ist&#45;&gt;iost -->
<g id="edge8" class="edge"><title>ist-&gt;iost</title>
<path fill="none" stroke="black" d="M448.131,-69.2293C456.553,-67.7073 465.232,-66.1387 473.8,-64.5903"/>
<polygon fill="black" stroke="black" points="474.566,-68.0087 483.784,-62.786 473.321,-61.1203 474.566,-68.0087"/>
</g>
<!-- ost&#45;&gt;iost -->
<g id="edge10" class="edge"><title>ost-&gt;iost</title>
<path fill="none" stroke="black" d="M448.131,-32.7707C456.553,-34.2927 465.232,-35.8613 473.8,-37.4097"/>
<polygon fill="black" stroke="black" points="473.321,-40.8797 483.784,-39.214 474.566,-33.9913 473.321,-40.8797"/>
</g>
</g>
</svg>
