<?xml version="1.0" encoding="UTF-8" standalone="no"?>
<!DOCTYPE svg PUBLIC "-//W3C//DTD SVG 1.1//EN" "http://www.w3.org/Graphics/SVG/1.1/DTD/svg11.dtd">
<!-- Generated by graphviz version 2.26.3 (20100126.1600)
 -->
<!-- Title: inheritance Pages: 1 -->
<svg xmlns="http://www.w3.org/2000/svg" xmlns:xlink="http://www.w3.org/1999/xlink" width="412px" height="45px" viewBox="0.00 0.00 456.00 50.00">
<g id="graph1" class="graph" transform="rotate(0) translate(4 46)">
<title>inheritance</title>
<!-- base -->
<g id="node1" class="node"><title>base</title>
<a>
<polygon fill="white" stroke="black" points="115,-39 1,-39 1,-3 115,-3 115,-39"/>
<text text-anchor="middle" x="58" y="-17.4" font-family="DejaVu Sans, verdana, sans-serif" font-size="14.00">ios_base</text>
</a>
</g>
<!-- ios -->
<g id="node2" class="node"><title>ios</title>
<a>
<polygon fill="white" stroke="black" points="282,-42 152,-42 152,-2.13163e-14 282,-7.10543e-15 282,-42"/>
<text text-anchor="start" x="186.5" y="-27.7333" font-family="DejaVu Sans, verdana, sans-serif" font-size="14.00">basic_ios</text>
<text text-anchor="start" x="160.5" y="-10.9333" font-family="DejaVu Sans, verdana, sans-serif" font-size="14.00" fill="#808080">&lt;CharT, Traits&gt;</text>
</a>
</g>
<!-- base&#45;&gt;ios -->
<g id="edge2" class="edge"><title>base-&gt;ios</title>
<path fill="none" stroke="black" d="M115.852,-21C124.277,-21 133.052,-21 141.759,-21"/>
<polygon fill="black" stroke="black" points="141.924,-24.5001 151.924,-21 141.924,-17.5001 141.924,-24.5001"/>
</g>
<!-- ost -->
<g id="node3" class="node"><title>ost</title>
<a>
<polygon fill="lightgrey" stroke="black" points="448,-42 318,-42 318,-2.13163e-14 448,-7.10543e-15 448,-42"/>
<text text-anchor="start" x="334" y="-27.7333" font-family="DejaVu Sans, verdana, sans-serif" font-size="14.00">basic_ostream</text>
<text text-anchor="start" x="326.5" y="-10.9333" font-family="DejaVu Sans, verdana, sans-serif" font-size="14.00" fill="#808080">&lt;CharT, Traits&gt;</text>
</a>
</g>
<!-- ios&#45;&gt;ost -->
<g id="edge4" class="edge"><title>ios-&gt;ost</title>
<path fill="none" stroke="black" d="M282.131,-21C290.461,-21 299.044,-21 307.521,-21"/>
<polygon fill="black" stroke="black" points="307.784,-24.5001 317.784,-21 307.784,-17.5001 307.784,-24.5001"/>
</g>
</g>
</svg>
