<?xml version="1.0" encoding="UTF-8" standalone="no"?>
<!DOCTYPE svg PUBLIC "-//W3C//DTD SVG 1.1//EN" "http://www.w3.org/Graphics/SVG/1.1/DTD/svg11.dtd">
<!-- Generated by graphviz version 2.26.3 (20100126.1600)
 -->
<!-- Title: inheritance Pages: 1 -->
<svg xmlns="http://www.w3.org/2000/svg" xmlns:xlink="http://www.w3.org/1999/xlink" width="304px" height="88px" viewBox="0.00 0.00 337.00 98.00">
<g id="graph1" class="graph" transform="rotate(0) translate(4 94)">
<title>inheritance</title>
<!-- base -->
<g id="node1" class="node"><title>base</title>
<a>
<polygon fill="white" stroke="black" points="115,-90 1,-90 1,-54 115,-54 115,-90"/>
<text text-anchor="middle" x="58" y="-68.4" font-family="DejaVu Sans, verdana, sans-serif" font-size="14.00">money_base</text>
</a>
</g>
<!-- f1 -->
<g id="node2" class="node"><title>f1</title>
<a>
<polygon fill="white" stroke="black" points="115,-36 1,-36 1,-1.77636e-14 115,-3.55271e-15 115,-36"/>
<text text-anchor="middle" x="58" y="-14.4" font-family="DejaVu Sans, verdana, sans-serif" font-size="14.00">locale::facet</text>
</a>
</g>
<!-- facet -->
<g id="node3" class="node"><title>facet</title>
<a>
<polygon fill="lightgrey" stroke="black" points="328,-66 146,-66 146,-24 328,-24 328,-66"/>
<text text-anchor="start" x="194" y="-51.7333" font-family="DejaVu Sans, verdana, sans-serif" font-size="14.00">moneypunct</text>
<text text-anchor="start" x="154" y="-34.9333" font-family="DejaVu Sans, verdana, sans-serif" font-size="14.00" fill="#808080">&lt;CharT, International&gt;</text>
</a>
</g>
<!-- facet&#45;&gt;base -->
<g id="edge4" class="edge"><title>facet-&gt;base</title>
<path fill="none" stroke="black" d="M145.403,-58.8164C140.486,-59.558 135.578,-60.2982 130.738,-61.0283"/>
<polygon fill="none" stroke="black" points="129.633,-55.8856 115.583,-63.3142 131.199,-66.2682 129.633,-55.8856"/>
</g>
<!-- facet&#45;&gt;f1 -->
<g id="edge2" class="edge"><title>facet-&gt;f1</title>
<path fill="none" stroke="black" d="M145.403,-31.1836C140.486,-30.442 135.578,-29.7018 130.738,-28.9717"/>
<polygon fill="none" stroke="black" points="131.199,-23.7318 115.583,-26.6858 129.633,-34.1144 131.199,-23.7318"/>
</g>
</g>
</svg>
